<?xml version="1.0" encoding="UTF-8" standalone="no"?>
<!-- Created with Inkscape (http://www.inkscape.org/) -->

<svg
   width="299.99976"
   height="51.027"
   viewBox="0 0 79.374933 13.500894"
   version="1.1"
   id="svg1"
   sodipodi:docname="biyoleta.svg"
   inkscape:version="1.4.3 (0d15f75, 2025-12-25)"
   xmlns:inkscape="http://www.inkscape.org/namespaces/inkscape"
   xmlns:sodipodi="http://sodipodi.sourceforge.net/DTD/sodipodi-0.dtd"
   xmlns="http://www.w3.org/2000/svg"
   xmlns:svg="http://www.w3.org/2000/svg">
  <sodipodi:namedview
     id="namedview1"
     pagecolor="#ffffff"
     bordercolor="#000000"
     borderopacity="0.25"
     inkscape:showpageshadow="2"
     inkscape:pageopacity="0.0"
     inkscape:pagecheckerboard="0"
     inkscape:deskcolor="#d1d1d1"
     inkscape:document-units="mm"
     inkscape:zoom="2.9550025"
     inkscape:cx="118.61242"
     inkscape:cy="68.697066"
     inkscape:window-width="1920"
     inkscape:window-height="991"
     inkscape:window-x="-9"
     inkscape:window-y="1341"
     inkscape:window-maximized="1"
     inkscape:current-layer="layer1">
    <inkscape:page
       x="0"
       y="0"
       width="79.374931"
       height="13.500894"
       id="page2"
       margin="0"
       bleed="0" />
  </sodipodi:namedview>
  <defs
     id="defs1" />
  <g
     inkscape:label="Layer 1"
     inkscape:groupmode="layer"
     id="layer1"
     transform="translate(-4.0128774e-5,6.9210051e-5)">
    <path
       style="font-size:18.5197px;line-height:0px;font-family:VALORANT;-inkscape-font-specification:VALORANT;fill:#512376;stroke-width:1.73621"
       d="M 0.22193577,0.27775917 H 10.000337 q 0.222236,0 0.222236,0.22223639 V 3.2223913 q 0,0.2592758 -0.148157,0.4629925 l -2.3705218,3.0742701 2.3705218,3.07427 q 0.148157,0.2037171 0.148157,0.4629921 v 2.722396 q 0,0.222237 -0.222236,0.222237 H 0.22193577 q -0.0925985,0 -0.16667729,-0.05556 -0.055559101,-0.07408 -0.055559101,-0.166677 V 0.49999556 q 0,-0.0925985 0.055559101,-0.14815759 0.07407879,-0.0740788 0.16667729,-0.0740788 z M 7.7964927,10.889547 4.7407423,6.9078114 q -0.092598,-0.1481575 0,-0.2777954 L 7.7964927,2.629761 H 2.3702209 v 8.259786 z M 13.111631,0.27775917 h 1.907529 q 0.240756,0 0.240756,0.22223639 V 13.019312 q 0,0.222237 -0.240756,0.222237 h -1.907529 q -0.0926,0 -0.166677,-0.05556 -0.05556,-0.07408 -0.05556,-0.166677 V 0.49999556 q 0,-0.0925985 0.05556,-0.14815759 0.07408,-0.0740788 0.166677,-0.0740788 z M 17.40819,6.7040948 q 0,-1.4260169 0.518551,-2.648317 0.537072,-1.2408199 1.426017,-2.1297654 0.907465,-0.9074653 2.129766,-1.40749714 1.2223,-0.518551575918 2.629797,-0.50003188 1.407497,0.0185197 2.629797,0.55559098 1.2223,0.53707124 2.111246,1.46305624 0.907465,0.9259849 1.426017,2.1668048 0.518551,1.2223001 0.500032,2.6112776 -0.01852,1.4074971 -0.555591,2.6297972 Q 29.68675,10.66731 28.760765,11.574776 27.8533,12.482241 26.631,13.000792 q -1.2223,0.500032 -2.629797,0.500032 -1.388978,0 -2.611278,-0.518551 -1.20378,-0.537072 -2.092726,-1.444537 Q 18.408254,10.611751 17.908222,9.3709314 17.40819,8.1301116 17.40819,6.7040948 Z m 2.370521,0.092599 q 0,0.9074652 0.351875,1.722332 0.351874,0.8148667 0.944504,1.4260168 0.592631,0.6111499 1.370458,0.9630239 0.777827,0.351875 1.666773,0.351875 0.870426,-0.01852 1.648253,-0.388914 0.777827,-0.370394 1.351938,-0.981544 0.592631,-0.6296698 0.925985,-1.4445365 0.333355,-0.8333865 0.314835,-1.7408517 0,-0.9074653 -0.351874,-1.7223321 Q 27.649583,4.166896 27.056953,3.5742656 26.464323,2.9631155 25.667976,2.6112413 24.890148,2.259367 24.019722,2.259367 23.149297,2.2778867 22.371469,2.6482807 21.593642,3.0001549 21.019531,3.6298247 20.44542,4.2409748 20.112066,5.0558415 19.778711,5.8707083 19.778711,6.7966933 Z M 32.909177,0.46295616 q 0,-0.0925985 0.05556,-0.14815759 0.07408,-0.0740788 0.166677,-0.0740788 h 9.778401 q 0.0926,0 0.148158,0.0740788 0.07408,0.0555591 0.07408,0.14815759 V 3.1853519 q 0,0.2592758 -0.166678,0.4629925 l -2.926112,3.8335777 4.185452,5.4633109 q 0.05556,0.0926 0,0.185197 -0.03704,0.07408 -0.129638,0.07408 h -2.352002 q -0.370394,0 -0.61115,-0.296315 L 37.076109,7.6300797 q -0.129638,-0.1481576 0,-0.2777955 L 40.72449,2.5927216 H 35.279698 V 12.982273 q 0,0.222236 -0.240756,0.222236 h -1.907529 q -0.0926,0 -0.166677,-0.05556 -0.05556,-0.07408 -0.05556,-0.166677 z M 45.96558,0.27775917 h 8.574621 q 0.111118,0 0.148158,0.0925985 0.05556,0.0740788 -0.01852,0.16667729 L 53.299381,2.3334458 Q 53.058625,2.629761 52.688231,2.629761 h -4.574365 v 2.9631518 h 4.629924 q 0.222237,0 0.222237,0.2222364 v 1.8890093 q 0,0.2407561 -0.222237,0.2407561 h -4.629924 v 2.9446324 h 5.852224 q 0.0926,0 0.148158,0.07408 0.07408,0.05556 0.07408,0.148157 v 1.907529 q 0,0.222237 -0.222237,0.222237 h -8.00051 q -0.0926,0 -0.166677,-0.05556 -0.05556,-0.07408 -0.05556,-0.166677 V 0.49999556 q 0,-0.0925985 0.05556,-0.14815759 0.07408,-0.0740788 0.166677,-0.0740788 z m 10.75995,0.18519699 q 0,-0.0925985 0.05556,-0.14815759 0.07408,-0.0740788 0.166677,-0.0740788 h 8.037549 q 0.370394,0 0.61115,0.29631519 l 1.370458,1.79641084 q 0.07408,0.092599 0.01852,0.185197 -0.03704,0.074079 -0.148158,0.074079 H 62.707392 V 12.982273 q 0,0.222236 -0.222236,0.222236 h -1.907529 q -0.222236,0 -0.222236,-0.222236 V 2.5927216 h -3.407625 q -0.0926,0 -0.166677,-0.055559 -0.05556,-0.074079 -0.05556,-0.1666773 z M 67.26323,12.982273 76.782355,0.57407436 q 0.240757,-0.29631519 0.611151,-0.29631519 h 1.759371 q 0.222236,0 0.222236,0.22223639 V 13.019312 q 0,0.222237 -0.222236,0.222237 h -1.759371 q -0.370394,0 -0.611151,-0.296316 L 73.578448,8.7597814 70.35602,12.945233 q -0.240756,0.296316 -0.61115,0.296316 h -2.352002 q -0.0926,0 -0.148158,-0.07408 -0.05556,-0.0926 0.01852,-0.185197 z m 7.852353,-6.2226191 1.907529,2.4816396 V 4.2780142 Z"
       id="text2"
       aria-label="BIORETA" />
  </g>
</svg>
