<?xml version="1.0" encoding="UTF-8" standalone="no"?>
<!-- Created with Inkscape (http://www.inkscape.org/) -->

<svg
   width="299.99976"
   height="87.603447"
   viewBox="0 0 79.374933 23.178412"
   version="1.1"
   id="svg1"
   xmlns:inkscape="http://www.inkscape.org/namespaces/inkscape"
   xmlns:sodipodi="http://sodipodi.sourceforge.net/DTD/sodipodi-0.dtd"
   xmlns="http://www.w3.org/2000/svg"
   xmlns:svg="http://www.w3.org/2000/svg">
  <sodipodi:namedview
     id="namedview1"
     pagecolor="#ffffff"
     bordercolor="#000000"
     borderopacity="0.25"
     inkscape:showpageshadow="2"
     inkscape:pageopacity="0.0"
     inkscape:pagecheckerboard="0"
     inkscape:deskcolor="#d1d1d1"
     inkscape:document-units="mm">
    <inkscape:page
       x="0"
       y="0"
       width="79.374931"
       height="23.178411"
       id="page2"
       margin="0"
       bleed="0" />
  </sodipodi:namedview>
  <defs
     id="defs1" />
  <g
     inkscape:label="Layer 1"
     inkscape:groupmode="layer"
     id="layer1"
     transform="translate(-4.0128774e-5,6.9210051e-5)">
    <path
       style="font-size:23.4837px;line-height:0px;font-family:Sefa;-inkscape-font-specification:Sefa;fill:#512376;stroke-width:2.20159"
       d="m 15.522766,11.694813 c 0,-0.774962 0,-1.573408 0,-2.3483697 C 14.818255,8.8298019 14.09026,8.2896768 13.385749,7.7730354 15.006125,5.9882742 16.6265,4.1800294 18.246875,2.3952682 c 0,-0.7749621 0,-1.57340792 0,-2.34837001 -0.774962,0 -1.549924,0 -2.324886,0 -0.04697,0 -0.02348,0 -0.04697,0 -2.043082,0.469674 -4.06268,0.91586429 -6.0822787,1.36205461 0,-0.46967402 0,-0.93934801 0,-1.409022010052 -0.774962,0 -1.5499241,0 -2.3483699,0 C 7.2330201,0.70444178 7.0216668,1.3854691 6.8103135,2.0899801 4.814199,2.5361704 2.7946008,3.0058444 0.77500262,3.4520347 c 0,0.7749621 0,1.5734078 0,2.3483699 0.77496208,0 1.54992418,0 2.32488628,0 0.023484,0 0.023484,0 0.046967,0 0.9158643,-0.2113533 1.8317286,-0.4227066 2.7475929,-0.6340599 -0.939348,3.0998484 -1.878696,6.1762133 -2.818044,9.2760613 0,0.02348 0,0.02348 0,0.04697 0,0.07045 0,0.117418 0,0.187869 -1.0332828,0.540125 -2.0430819,1.08025 -3.076364671226,1.620375 0,0.798446 0,1.573408 0,2.34837 0.774962091226,0 1.573407871226,0 2.348369971226,0 C 6.7398624,16.344586 11.131314,14.0197 15.522766,11.694813 Z M 9.1586835,4.4383501 C 10.332868,4.1800294 11.48357,3.9217087 12.634271,3.663388 11.671439,4.7201544 10.708608,5.7769209 9.7457759,6.8571711 c 0,0.7749621 0,1.5499242 0,2.34837 0.5166411,0.3757392 1.0332831,0.7514784 1.5734081,1.1272179 -1.5734081,0.821929 -3.1233322,1.643859 -4.6732564,2.465788 z M 21.792931,2.489203 c 0,-0.7984458 0,-1.57340792 0,-2.34837001 -0.774962,0 -1.573408,0 -2.34837,0 -0.211353,0.4227066 -0.44619,0.84541319 -0.657543,1.26811981 0,0.7749621 0,1.5499242 0,2.34837 0.774962,0 1.573408,0 2.34837,0 0.211353,-0.4227066 0.44619,-0.8454132 0.657543,-1.2681198 z m 0.375739,4.9550606 c 0.02348,-0.023484 0.02348,0 0.02348,-0.046967 0,-0.7749621 0,-1.5499242 0,-2.3248863 -0.798446,0 -1.573408,0 -2.34837,0 -1.033283,3.1937832 -2.043082,6.3640827 -3.052881,9.5343817 0,0.02348 0,0.02348 0,0.04697 0,0.774963 0,1.549925 0,2.324887 0.774962,0 1.573408,0 2.34837,0 1.009799,-3.1703 2.019598,-6.364083 3.029397,-9.534382 z m 11.436576,-0.093935 v -2.34837 c -0.774962,0 -1.549924,0 -2.34837,0 C 30.6463,7.491231 30.035724,9.9805032 29.401664,12.446292 h -0.140902 c -1.479473,0.399223 -2.958946,0.774962 -4.438419,1.150701 0.211353,-0.516641 0.422706,-1.033283 0.634059,-1.573408 l 1.291604,-3.0998483 c 0.211353,-0.5401251 0.422707,-1.0567665 0.63406,-1.5734079 0,-0.7749621 0,-1.5734079 0,-2.34837 -0.774962,0 -1.573408,0 -2.34837,0 -0.328772,0.7984458 -0.657544,1.5968916 -0.986316,2.3718537 l -1.949147,4.7906745 c -0.328771,0.774962 -0.657543,1.573408 -0.986315,2.371854 0,0.774962 0,1.573408 0,2.34837 h 2.371854 c 1.71431,-0.44619 3.42862,-0.892381 5.14293,-1.315087 -0.328772,1.385538 -0.681027,2.79456 -1.033283,4.180098 -1.009799,-0.516641 -2.019598,-1.033282 -3.052881,-1.549924 -0.774962,0 -1.549924,0 -2.34837,0 0,0.774962 0,1.549924 0,2.34837 1.71431,0.868897 3.42862,1.737794 5.14293,2.630174 0.774963,0 1.549925,0 2.34837,0 0.328772,-1.315087 0.657544,-2.630174 0.986316,-3.968745 l 1.949147,-7.890523 c 0.328772,-1.3385708 0.657543,-2.653658 0.986315,-3.9687454 z m 10.051023,2.5362396 c 0,-0.7749621 0,-1.5734079 0,-2.34837 -0.328772,-0.234837 -0.657544,-0.469674 -1.009799,-0.704511 l -1.972631,-1.409022 c -0.352256,-0.234837 -0.681027,-0.469674 -1.009799,-0.704511 -0.774962,0 -1.573408,0 -2.34837,0 -0.915865,0.6340599 -1.831729,1.2681198 -2.747593,1.9021797 0,0.7749621 0,1.5499242 0,2.34837 0.164386,0 0.352255,0 0.516641,0 -0.681027,1.0567671 -1.362054,2.1135331 -2.043082,3.1703001 0,0.774962 0,1.549924 0,2.34837 0.258321,0.211353 0.516642,0.44619 0.798446,0.657543 l 1.549924,1.338571 c 0.281805,0.234837 0.540125,0.469674 0.798446,0.681027 0.774962,0 1.573408,0 2.34837,0 1.71431,-2.442304 3.405137,-4.861126 5.119447,-7.2799468 z m -7.279947,3.0763648 c 0.868897,-1.362055 1.737794,-2.724109 2.630174,-4.0861639 0.07045,-0.1174185 0,-0.4931577 0,-0.6105762 0.399223,0.2818044 0.798446,0.5636088 1.197669,0.8454132 -0.258321,0.3757392 -0.516642,0.7279947 -0.798446,1.1037339 l -1.549924,2.230952 c -0.281805,0.352255 -0.540125,0.727994 -0.798446,1.103734 -0.211353,-0.18787 -0.44619,-0.399223 -0.681027,-0.587093 z M 49.597653,2.4187519 c 0.02348,-0.023484 0.02348,0 0.02348,-0.046967 0,-0.7749621 0,-1.54992422 0,-2.32488631 -0.798446,0 -1.573408,0 -2.34837,0 C 45.816774,4.861057 44.337301,9.6752155 42.881311,14.489374 c 0,0.02348 0,0 0,0.04697 0,0.774962 0,1.549924 0,2.324886 0.774963,0 1.573408,0 2.34837,0 1.45599,-4.814158 2.911979,-9.6283163 4.367969,-14.4424747 z m 8.548048,11.9766871 c 0,-0.774962 0,-1.549924 0,-2.34837 -0.774962,0 -1.573408,0 -2.34837,0 -0.915865,0.798446 -1.90218,1.596891 -2.98243,2.1605 -0.469674,-0.328772 -0.915864,-0.704511 -1.315087,-1.127217 -0.07045,-0.07045 0.140902,0.02348 0.234837,-0.02348 2.1605,-0.915864 4.321,-1.831729 6.458017,-2.747593 0,-0.7749621 0,-1.5734079 0,-2.34837 C 56.736679,6.9745896 55.280689,5.9882742 53.8247,4.9784751 c -0.798446,0 -1.573408,0 -2.34837,0 -1.573408,1.6673427 -3.146816,3.3346854 -4.720224,4.9785444 0,0.7749625 0,1.5734075 0,2.3483695 0.939348,1.479474 3.146816,4.649773 4.88461,4.649773 0.774962,0 1.52644,0 2.301402,0 1.174185,0 3.35817,-1.831729 4.203583,-2.559723 z M 52.885352,8.3131605 c 0.281804,0.1878696 0.563609,0.3757392 0.845413,0.5636088 -0.774962,0.3052881 -1.52644,0.6340599 -2.277919,0.9628317 0.469674,-0.5166414 0.962832,-1.0332828 1.432506,-1.5264405 z m 14.653845,5.3073165 c 0,-0.774962 0,-1.573408 0,-2.34837 -0.774962,0 -1.549924,0 -2.34837,0 -0.516641,0.305288 -1.056766,0.610576 -1.596891,0.915864 0.352255,-1.056767 0.681027,-2.137017 1.033283,-3.2172669 1.244636,-0.3757392 2.489272,-0.7514784 3.733908,-1.1272176 0,-0.7984458 0,-1.5734079 0,-2.34837 -0.774962,0 -1.549924,0 -2.324886,0 -0.04697,0 -0.02348,0 -0.04697,0 -0.09394,0.023484 -0.187869,0.046967 -0.258321,0.070451 0.328772,-1.0567664 0.681028,-2.1135329 1.033283,-3.1702994 0,-0.046967 0,-0.023484 0,-0.046967 0,-0.7749621 0,-1.54992422 0,-2.32488631 -0.774962,0 -1.573408,0 -2.34837,0 -0.704511,2.18398411 -1.432505,4.39145191 -2.137016,6.59891961 -1.362055,0.4227066 -2.72411,0.8219295 -4.086164,1.2446361 0,0.7749621 0,1.5734079 0,2.3483695 0.774962,0 1.549924,0 2.324886,0 0.02348,0 0.02348,0 0.04697,0 0.211353,-0.07045 0.422706,-0.140902 0.610576,-0.187869 -0.446191,1.432505 -0.915865,2.865011 -1.385539,4.297517 0,0.02348 0,0.04697 0,0.07045 0,0.774962 0,1.549924 0,2.324886 0.774963,0 1.549925,0 2.34837,0 1.808245,-1.033283 3.61649,-2.066566 5.401251,-3.099847 z m 6.692849,1.643859 c 0,0.493157 0,0.986315 0,1.479473 0.774962,0 1.573408,0 2.34837,0 0.258321,-0.892381 0.516641,-1.784761 0.798446,-2.677142 0.610576,-0.258321 1.244636,-0.493158 1.878696,-0.727995 0,-0.798446 0,-1.573408 0,-2.34837 -0.328772,0 -0.657544,0 -0.986316,0 0.37574,-1.2446358 0.727995,-2.4657882 1.103734,-3.733908 0,-0.7749621 0,-1.5499242 0,-2.3248863 -0.798445,0 -1.573408,0 -2.34837,0 L 76.815253,5.612535 c 0,0 -0.02348,-0.023484 -0.04697,-0.023484 -0.399223,-0.3287718 -0.939348,-0.5636088 -1.45599,-0.5636088 -0.798446,0 -1.596891,0 -2.395337,0 -2.958946,0 -4.579322,7.2094958 -4.955061,9.3934798 v 2.34837 c 0.774962,0 1.573408,0 2.34837,0 1.315087,-0.493157 2.606691,-0.986315 3.921778,-1.502956 z m -0.09394,-7.5147843 c 0.63406,0.3757392 1.150702,0.939348 1.596892,1.5264405 l -0.704511,2.4423048 c -1.291604,0.493158 -2.583207,0.986315 -3.874811,1.479473 0.493158,-1.667343 1.45599,-4.4149355 2.98243,-5.4482183 z"
       id="text1"
       aria-label="Biyoleta" />
  </g>
</svg>
