<?xml version="1.0" encoding="UTF-8" standalone="no"?>
<!-- Created with Inkscape (http://www.inkscape.org/) -->

<svg
   width="300"
   height="45.363998"
   viewBox="0 0 79.374998 12.002558"
   version="1.1"
   id="svg1"
   sodipodi:docname="biyoleta.svg"
   inkscape:version="1.4.3 (0d15f75, 2025-12-25)"
   xmlns:inkscape="http://www.inkscape.org/namespaces/inkscape"
   xmlns:sodipodi="http://sodipodi.sourceforge.net/DTD/sodipodi-0.dtd"
   xmlns="http://www.w3.org/2000/svg"
   xmlns:svg="http://www.w3.org/2000/svg">
  <sodipodi:namedview
     id="namedview1"
     pagecolor="#ffffff"
     bordercolor="#000000"
     borderopacity="0.25"
     inkscape:showpageshadow="2"
     inkscape:pageopacity="0.0"
     inkscape:pagecheckerboard="0"
     inkscape:deskcolor="#d1d1d1"
     inkscape:document-units="mm"
     inkscape:zoom="2.0895023"
     inkscape:cx="127.54233"
     inkscape:cy="44.029624"
     inkscape:window-width="1920"
     inkscape:window-height="991"
     inkscape:window-x="-9"
     inkscape:window-y="1341"
     inkscape:window-maximized="1"
     inkscape:current-layer="layer1">
    <inkscape:page
       x="0"
       y="0"
       width="79.375"
       height="12.002558"
       id="page2"
       margin="0"
       bleed="0" />
  </sodipodi:namedview>
  <defs
     id="defs1" />
  <g
     inkscape:label="Layer 1"
     inkscape:groupmode="layer"
     id="layer1"
     transform="translate(-4.0128774e-5,6.9210051e-5)">
    <path
       d="M 0.19761301,0.24689274 H 8.890832 q 0.1975731,0 0.1975731,0.19757316 v 2.4202712 q 0,0.230502 -0.1317154,0.4116107 l -2.107447,2.7330954 2.107447,2.7330953 Q 9.0884051,8.9236473 9.0884051,9.1541493 V 11.57442 q 0,0.197574 -0.1975731,0.197574 H 0.19761301 q -0.0823222,0 -0.14817987,-0.04939 Q 3.9852142e-5,11.656743 3.9852142e-5,11.57442 V 0.4444659 q 0,-0.0823222 0.04939328786,-0.13171544 0.06585772,-0.0658577 0.14817987,-0.0658577 z M 6.9315648,9.681011 4.2149339,6.1411586 q -0.082322,-0.1317154 0,-0.2469664 L 6.9315648,2.3378753 H 2.1074869 V 9.681011 Z M 11.656842,0.24689274 h 1.695837 q 0.214037,0 0.214037,0.19757316 V 11.57442 q 0,0.197574 -0.214037,0.197574 h -1.695837 q -0.08232,0 -0.148179,-0.04939 -0.04939,-0.06586 -0.04939,-0.14818 V 0.4444659 q 0,-0.0823222 0.04939,-0.13171544 0.06586,-0.0658577 0.148179,-0.0658577 z m 3.342269,-0.0329289 h 2.090983 q 0.329288,0 0.543326,0.26343088 l 3.375208,4.39600274 3.375208,-4.39600274 q 0.214038,-0.26343088 0.543326,-0.26343088 h 2.090983 q 0.09879,0 0.131715,0.0823221 0.04939,0.0823222 -0.01646,0.14817987 l -5.071044,6.6187008 v 4.4783253 q 0,0.08232 -0.06586,0.148179 -0.04939,0.04939 -0.131716,0.04939 h -1.695836 q -0.214037,0 -0.214037,-0.197573 V 7.0631667 L 14.88386,0.4444659 q -0.06586,-0.0658577 -0.01646,-0.14817987 0.04939,-0.0823221 0.131715,-0.0823221 z M 27.545004,5.9600499 q 0,-1.2677611 0.461004,-2.3544135 0.477468,-1.1031168 1.267761,-1.8934094 0.806757,-0.80675707 1.893409,-1.25129667 1.086653,-0.461004039488 2.33795,-0.44453961 1.251296,0.01646443 2.337949,0.4939329 1.086652,0.47746846 1.876945,1.30068998 0.806757,0.8232215 1.267761,1.9263383 0.461004,1.0866523 0.444539,2.3214846 -0.01646,1.2512966 -0.493933,2.337949 -0.477468,1.0866524 -1.30069,1.8934095 -0.806757,0.806757 -1.893409,1.267761 -1.086652,0.44454 -2.337949,0.44454 -1.234832,0 -2.321485,-0.461004 -1.070188,-0.477469 -1.86048,-1.284226 Q 28.434083,9.4340446 27.989544,8.3309278 27.545004,7.227811 27.545004,5.9600499 Z m 2.107447,0.082322 q 0,0.8067571 0.312824,1.531192 0.312824,0.7244349 0.839686,1.2677611 0.526862,0.5433262 1.218368,0.8561504 0.691506,0.3128245 1.481799,0.3128245 0.773828,-0.016465 1.465334,-0.3457534 0.691506,-0.3292886 1.201903,-0.8726148 0.526862,-0.5597906 0.823222,-1.2842255 0.296359,-0.7408993 0.279895,-1.5476564 0,-0.8067571 -0.312824,-1.531192 Q 36.649834,3.704423 36.122972,3.1775613 35.59611,2.6342351 34.88814,2.3214109 34.196634,2.0085867 33.422805,2.0085867 32.648977,2.0250512 31.957471,2.3543398 31.265965,2.6671639 30.755568,3.2269545 30.24517,3.7702807 29.948811,4.4947156 29.652451,5.2191506 29.652451,6.042372 Z M 41.523304,0.24689274 h 1.695837 q 0.214037,0 0.214037,0.19757316 V 9.681011 h 4.61004 q 0.09879,0 0.131716,0.082322 0.04939,0.082322 0,0.1481799 l -1.234832,1.5970499 q -0.214038,0.263431 -0.526862,0.263431 h -4.889936 q -0.08232,0 -0.14818,-0.04939 -0.04939,-0.06586 -0.04939,-0.14818 V 0.4444659 q 0,-0.0823222 0.04939,-0.13171544 0.06586,-0.0658577 0.14818,-0.0658577 z m 8.149906,0 h 7.623031 q 0.09879,0 0.131716,0.0823221 0.04939,0.0658577 -0.01646,0.14817987 L 56.193125,2.0744445 q -0.214038,0.2634308 -0.543327,0.2634308 h -4.066714 v 2.6343088 h 4.116108 q 0.197573,0 0.197573,0.1975732 v 1.6793718 q 0,0.2140376 -0.197573,0.2140376 H 51.583084 V 9.681011 h 5.20276 q 0.08232,0 0.131716,0.065858 0.06586,0.049393 0.06586,0.1317154 V 11.57442 q 0,0.197574 -0.197573,0.197574 H 49.67321 q -0.08232,0 -0.148179,-0.04939 -0.04939,-0.06586 -0.04939,-0.14818 V 0.4444659 q 0,-0.0823222 0.04939,-0.13171544 0.06586,-0.0658577 0.148179,-0.0658577 z m 9.56584,0.1646443 q 0,-0.0823222 0.04939,-0.13171544 0.06586,-0.0658577 0.14818,-0.0658577 h 7.145562 q 0.329289,0 0.543326,0.26343088 L 68.34388,2.0744445 q 0.06586,0.082322 0.01646,0.1646443 -0.03293,0.065858 -0.131716,0.065858 h -3.671568 v 9.2365455 q 0,0.197573 -0.197573,0.197573 h -1.695836 q -0.197573,0 -0.197573,-0.197573 V 2.3049465 h -3.029455 q -0.08232,0 -0.14818,-0.049393 -0.04939,-0.065858 -0.04939,-0.1481799 z M 68.607304,11.541492 77.070021,0.51032362 q 0.214038,-0.26343088 0.543326,-0.26343088 h 1.564121 q 0.197573,0 0.197573,0.19757316 V 11.57442 q 0,0.197574 -0.197573,0.197574 h -1.564121 q -0.329288,0 -0.543326,-0.263431 L 74.221675,7.7876016 71.356864,11.508563 q -0.214038,0.263431 -0.543326,0.263431 h -2.090983 q -0.08232,0 -0.131715,-0.06586 -0.04939,-0.08232 0.01646,-0.164644 z m 6.980918,-5.5320488 1.695837,2.2062336 V 3.8032096 Z"
       id="text1"
       style="font-size:16.4644px;line-height:0px;font-family:VALORANT;-inkscape-font-specification:VALORANT;fill:#512376;stroke-width:1.54353"
       aria-label="BIYOLETA" />
  </g>
</svg>
