<?xml version="1.0" encoding="UTF-8" standalone="no"?>
<!-- Created with Inkscape (http://www.inkscape.org/) -->

<svg
   width="40.237999"
   height="51.027"
   viewBox="0 0 10.646304 13.500894"
   version="1.1"
   id="svg1"
   sodipodi:docname="biyoleta - Copy.svg"
   inkscape:version="1.4.3 (0d15f75, 2025-12-25)"
   xmlns:inkscape="http://www.inkscape.org/namespaces/inkscape"
   xmlns:sodipodi="http://sodipodi.sourceforge.net/DTD/sodipodi-0.dtd"
   xmlns="http://www.w3.org/2000/svg"
   xmlns:svg="http://www.w3.org/2000/svg">
  <sodipodi:namedview
     id="namedview1"
     pagecolor="#ffffff"
     bordercolor="#000000"
     borderopacity="0.25"
     inkscape:showpageshadow="2"
     inkscape:pageopacity="0.0"
     inkscape:pagecheckerboard="0"
     inkscape:deskcolor="#d1d1d1"
     inkscape:document-units="mm"
     inkscape:zoom="2.9550025"
     inkscape:cx="77.834114"
     inkscape:cy="105.58367"
     inkscape:window-width="1920"
     inkscape:window-height="991"
     inkscape:window-x="-9"
     inkscape:window-y="1341"
     inkscape:window-maximized="1"
     inkscape:current-layer="layer1">
    <inkscape:page
       x="0"
       y="0"
       width="10.646304"
       height="13.500894"
       id="page2"
       margin="0"
       bleed="0" />
  </sodipodi:namedview>
  <defs
     id="defs1" />
  <g
     inkscape:label="Layer 1"
     inkscape:groupmode="layer"
     id="layer1"
     transform="translate(-4.0128774e-5,6.9210051e-5)">
    <path
       d="M 0.23148259,-5.4550171e-5 H 10.414913 q 0.231442,0 0.231442,0.231441600171 V 3.0665467 q 0,0.2700152 -0.154295,0.48217 L 8.0233499,6.7503256 10.49206,9.9519344 q 0.154295,0.2121546 0.154295,0.4821696 v 2.83516 q 0,0.231442 -0.231442,0.231442 H 0.23148259 q -0.096434,0 -0.17358121,-0.05786 Q 4.0982246e-5,13.365698 4.0982246e-5,13.269264 V 0.23138705 q 0,-0.096434 0.05786039775,-0.1542944 0.0771472,-0.07714720017 0.17358121,-0.07714720017 z M 8.1197839,11.051282 4.9374619,6.90462 q -0.096434,-0.1542944 0,-0.289302 L 8.1197839,2.4493691 H 2.4687514 v 8.6019129 z"
       id="text1"
       style="font-size:19.2868px;line-height:0px;font-family:VALORANT;-inkscape-font-specification:VALORANT;fill:#512376;stroke-width:1.80812"
       aria-label="B" />
  </g>
</svg>
